<svg xmlns="http://www.w3.org/2000/svg" enable-background="new 0 0 512 512" viewBox="0 0 512 512"><path fill="#f48b78" d="M256,16C123.452,16,16,123.452,16,256s107.452,240,240,240s240-107.452,240-240S388.548,16,256,16z
		 M256,376.495c-7.732,0-14-6.268-14-14s6.268-14,14-14c7.732,0,14,6.268,14,14S263.732,376.495,256,376.495z M270,319.678
		c0,7.732-6.268,14-14,14s-14-6.268-14-14V139.053c0-7.732,6.268-14,14-14s14,6.268,14,14V319.678z"/><path fill="#dd5142" d="M256,125.053c-7.732,0-14,6.268-14,14v180.625c0,7.732,6.268,14,14,14s14-6.268,14-14V139.053
		C270,131.321,263.732,125.053,256,125.053z"/><circle cx="256" cy="362.496" r="14" fill="#dd5142"/></svg>