<svg xmlns="http://www.w3.org/2000/svg" xmlns:xlink="http://www.w3.org/1999/xlink" width="100" zoomAndPan="magnify" viewBox="0 0 75 30.000001" height="40" preserveAspectRatio="xMidYMid meet" version="1.0"><defs><g><g id="id1"/></g><clipPath id="id2"><path d="M 12 3.808594 L 14 3.808594 L 14 6 L 12 6 Z M 12 3.808594 " clip-rule="nonzero"/></clipPath><clipPath id="id3"><path d="M 10.730469 22.007812 L 13.542969 22.007812 L 13.542969 25.273438 L 10.730469 25.273438 Z M 10.730469 22.007812 " clip-rule="nonzero"/></clipPath><clipPath id="id4"><path d="M 1.75 4.539062 L 24.691406 4.539062 L 24.691406 16.089844 L 1.75 16.089844 Z M 1.75 4.539062 " clip-rule="nonzero"/></clipPath><clipPath id="id5"><path d="M 1.71875 4 L 14 4 L 14 17 L 1.71875 17 Z M 1.71875 4 " clip-rule="nonzero"/></clipPath><clipPath id="id6"><path d="M 13.203125 4.539062 L 24.691406 4.539062 L 24.691406 16.089844 L 13.203125 16.089844 Z M 13.203125 4.539062 " clip-rule="nonzero"/></clipPath></defs><path fill="rgb(12.939453%, 11.369324%, 11.369324%)" d="M 12.976562 4.511719 L 13.46875 4.511719 L 13.46875 23.785156 L 12.976562 23.785156 L 12.976562 4.511719 " fill-opacity="1" fill-rule="nonzero"/><g clip-path="url(#id2)"><path fill="rgb(12.939453%, 11.369324%, 11.369324%)" d="M 13.34375 3.808594 L 13.097656 3.808594 L 12.976562 4.511719 L 13.097656 5.21875 L 13.34375 5.21875 L 13.46875 4.511719 L 13.34375 3.808594 " fill-opacity="1" fill-rule="nonzero"/></g><g clip-path="url(#id3)"><path fill="rgb(12.939453%, 11.369324%, 11.369324%)" d="M 13.496094 22.011719 L 12.878906 22.011719 L 12.878906 24.148438 C 12.878906 24.335938 12.738281 24.492188 12.566406 24.492188 L 11.742188 24.492188 C 11.570312 24.492188 11.429688 24.335938 11.429688 24.148438 L 11.429688 23.570312 L 10.777344 23.570312 L 10.777344 24.933594 C 10.777344 25.121094 10.917969 25.273438 11.089844 25.273438 L 13.222656 25.273438 C 13.394531 25.273438 13.53125 25.121094 13.53125 24.933594 L 13.53125 22.054688 C 13.535156 22.03125 13.515625 22.011719 13.496094 22.011719 " fill-opacity="1" fill-rule="nonzero"/></g><g clip-path="url(#id4)"><path fill="rgb(92.549133%, 11.369324%, 15.289307%)" d="M 3.023438 14.808594 C 4.023438 14.808594 4.964844 15.273438 5.574219 16.066406 C 6.65625 14.65625 8.671875 14.394531 10.082031 15.472656 C 10.300781 15.644531 10.5 15.84375 10.671875 16.066406 C 11.753906 14.65625 13.773438 14.394531 15.179688 15.472656 C 15.402344 15.644531 15.601562 15.84375 15.769531 16.066406 C 16.851562 14.65625 18.871094 14.394531 20.277344 15.472656 C 20.5 15.644531 20.699219 15.84375 20.871094 16.066406 C 21.765625 14.898438 23.339844 14.488281 24.691406 15.070312 C 24.167969 9.191406 19.234375 4.585938 13.222656 4.585938 C 7.210938 4.585938 2.273438 9.191406 1.75 15.070312 C 2.152344 14.898438 2.585938 14.808594 3.023438 14.808594 " fill-opacity="1" fill-rule="nonzero"/></g><g clip-path="url(#id5)"><path fill="rgb(74.119568%, 12.159729%, 18.429565%)" d="M 13.222656 4.585938 C 13.222656 4.585938 3.207031 4.421875 1.75 15.070312 C 1.75 15.070312 3.707031 14.042969 5.574219 16.066406 C 6.503906 11.378906 9.253906 7.25 13.222656 4.585938 " fill-opacity="1" fill-rule="nonzero"/></g><g clip-path="url(#id6)"><path fill="rgb(74.119568%, 12.159729%, 18.429565%)" d="M 13.222656 4.585938 C 13.222656 4.585938 23.238281 4.421875 24.691406 15.070312 C 24.691406 15.070312 22.734375 14.042969 20.871094 16.066406 C 20.472656 14.074219 19.746094 12.160156 18.714844 10.410156 C 17.335938 8.085938 15.460938 6.097656 13.222656 4.585938 " fill-opacity="1" fill-rule="nonzero"/></g><path fill="rgb(74.119568%, 12.159729%, 18.429565%)" d="M 13.222656 4.585938 L 10.671875 16.066406 C 10.773438 15.933594 11.667969 14.808594 13.222656 14.808594 C 14.773438 14.808594 15.671875 15.933594 15.769531 16.066406 C 14.921875 12.238281 14.070312 8.410156 13.222656 4.585938 " fill-opacity="1" fill-rule="nonzero"/><g fill="rgb(0%, 0%, 0%)" fill-opacity="1"><g transform="translate(27.485459, 11.625316)"><g><path d="M 6.1875 0 L 5.015625 -4.140625 L 3.828125 0 L 1.96875 0 L -0.140625 -7.375 L 1.734375 -7.375 L 3 -2.3125 L 3.03125 -2.3125 L 4.375 -7.375 L 5.65625 -7.375 L 6.984375 -2.3125 L 7.03125 -2.3125 L 8.296875 -7.375 L 10.15625 -7.375 L 8.046875 0 Z M 6.1875 0 "/></g></g></g><g fill="rgb(0%, 0%, 0%)" fill-opacity="1"><g transform="translate(37.051358, 11.625316)"><g><path d="M 4.75 -7.375 L 4.75 -5.90625 L 2.21875 -5.90625 L 2.21875 -4.4375 L 4.640625 -4.4375 L 4.640625 -2.953125 L 2.21875 -2.953125 L 2.21875 -1.46875 L 4.75 -1.46875 L 4.75 0 L 0.53125 0 L 0.53125 -7.375 Z M 4.75 -7.375 "/></g></g></g><g fill="rgb(0%, 0%, 0%)" fill-opacity="1"><g transform="translate(41.785182, 11.625316)"><g><path d="M 4.28125 -7.375 L 7.25 0 L 5.453125 0 L 4.90625 -1.46875 L 2.09375 -1.46875 L 1.5625 0 L -0.25 0 L 2.71875 -7.375 Z M 4.328125 -2.953125 L 3.515625 -5.09375 L 3.5 -5.09375 L 2.671875 -2.953125 Z M 4.328125 -2.953125 "/></g></g></g><g fill="rgb(0%, 0%, 0%)" fill-opacity="1"><g transform="translate(48.341083, 11.625316)"><g><path d="M 0.078125 -5.90625 L 0.078125 -7.375 L 5.25 -7.375 L 5.25 -5.90625 L 3.5 -5.90625 L 3.5 0 L 1.828125 0 L 1.828125 -5.90625 Z M 0.078125 -5.90625 "/></g></g></g><g fill="rgb(0%, 0%, 0%)" fill-opacity="1"><g transform="translate(53.217816, 11.625316)"><g><path d="M 2.21875 -2.953125 L 2.21875 0 L 0.53125 0 L 0.53125 -7.375 L 2.21875 -7.375 L 2.21875 -4.4375 L 4.59375 -4.4375 L 4.59375 -7.375 L 6.28125 -7.375 L 6.28125 0 L 4.59375 0 L 4.59375 -2.953125 Z M 2.21875 -2.953125 "/></g></g></g><g fill="rgb(0%, 0%, 0%)" fill-opacity="1"><g transform="translate(59.577218, 11.625316)"><g><path d="M 4.75 -7.375 L 4.75 -5.90625 L 2.21875 -5.90625 L 2.21875 -4.4375 L 4.640625 -4.4375 L 4.640625 -2.953125 L 2.21875 -2.953125 L 2.21875 -1.46875 L 4.75 -1.46875 L 4.75 0 L 0.53125 0 L 0.53125 -7.375 Z M 4.75 -7.375 "/></g></g></g><g fill="rgb(0%, 0%, 0%)" fill-opacity="1"><g transform="translate(64.311042, 11.625316)"><g><path d="M 0.53125 -7.375 L 3.171875 -7.375 C 3.878906 -7.375 4.457031 -7.179688 4.90625 -6.796875 C 5.351562 -6.421875 5.578125 -5.882812 5.578125 -5.1875 C 5.578125 -4.644531 5.441406 -4.1875 5.171875 -3.8125 C 4.898438 -3.445312 4.53125 -3.191406 4.0625 -3.046875 L 6.609375 0 L 4.46875 0 L 2.21875 -2.90625 L 2.21875 0 L 0.53125 0 Z M 2.21875 -4.109375 L 2.40625 -4.109375 C 2.5625 -4.109375 2.691406 -4.109375 2.796875 -4.109375 C 2.910156 -4.117188 3.035156 -4.140625 3.171875 -4.171875 C 3.304688 -4.210938 3.414062 -4.265625 3.5 -4.328125 C 3.582031 -4.390625 3.65625 -4.484375 3.71875 -4.609375 C 3.78125 -4.734375 3.8125 -4.882812 3.8125 -5.0625 C 3.8125 -5.238281 3.78125 -5.390625 3.71875 -5.515625 C 3.65625 -5.648438 3.582031 -5.75 3.5 -5.8125 C 3.414062 -5.875 3.304688 -5.921875 3.171875 -5.953125 C 3.035156 -5.992188 2.910156 -6.015625 2.796875 -6.015625 C 2.691406 -6.023438 2.5625 -6.03125 2.40625 -6.03125 L 2.21875 -6.03125 Z M 2.21875 -4.109375 "/></g></g></g><g fill="rgb(0%, 0%, 0%)" fill-opacity="1"><g transform="translate(27.485459, 20.110467)"><g><path d="M 2.21875 -4.578125 L 2.21875 0 L 0.53125 0 L 0.53125 -7.375 L 2.21875 -7.375 L 5.140625 -2.796875 L 5.171875 -2.796875 L 5.171875 -7.375 L 6.84375 -7.375 L 6.84375 0 L 5.171875 0 L 2.234375 -4.578125 Z M 2.21875 -4.578125 "/></g></g></g><g fill="rgb(0%, 0%, 0%)" fill-opacity="1"><g transform="translate(34.416493, 20.110467)"><g><path d="M 0.203125 -3.6875 C 0.203125 -4.757812 0.566406 -5.660156 1.296875 -6.390625 C 2.023438 -7.128906 2.898438 -7.5 3.921875 -7.5 C 4.953125 -7.5 5.828125 -7.128906 6.546875 -6.390625 C 7.265625 -5.660156 7.625 -4.757812 7.625 -3.6875 C 7.625 -2.613281 7.269531 -1.707031 6.5625 -0.96875 C 5.851562 -0.226562 4.972656 0.140625 3.921875 0.140625 C 2.847656 0.140625 1.957031 -0.222656 1.25 -0.953125 C 0.550781 -1.691406 0.203125 -2.601562 0.203125 -3.6875 Z M 2.015625 -3.6875 C 2.015625 -3.300781 2.070312 -2.945312 2.1875 -2.625 C 2.3125 -2.3125 2.519531 -2.046875 2.8125 -1.828125 C 3.113281 -1.609375 3.484375 -1.5 3.921875 -1.5 C 4.546875 -1.5 5.015625 -1.710938 5.328125 -2.140625 C 5.648438 -2.566406 5.8125 -3.082031 5.8125 -3.6875 C 5.8125 -4.289062 5.648438 -4.804688 5.328125 -5.234375 C 5.003906 -5.671875 4.535156 -5.890625 3.921875 -5.890625 C 3.316406 -5.890625 2.847656 -5.671875 2.515625 -5.234375 C 2.179688 -4.804688 2.015625 -4.289062 2.015625 -3.6875 Z M 2.015625 -3.6875 "/></g></g></g><g fill="rgb(0%, 0%, 0%)" fill-opacity="1"><g transform="translate(41.803046, 20.110467)"><g><path d="M 6.1875 0 L 5.015625 -4.140625 L 3.828125 0 L 1.96875 0 L -0.140625 -7.375 L 1.734375 -7.375 L 3 -2.3125 L 3.03125 -2.3125 L 4.375 -7.375 L 5.65625 -7.375 L 6.984375 -2.3125 L 7.03125 -2.3125 L 8.296875 -7.375 L 10.15625 -7.375 L 8.046875 0 Z M 6.1875 0 "/></g></g></g></svg>