<svg id="SvgjsSvg1001" width="288" height="288" xmlns="http://www.w3.org/2000/svg" version="1.1" xmlns:xlink="http://www.w3.org/1999/xlink" xmlns:svgjs="http://svgjs.com/svgjs"><defs id="SvgjsDefs1002"></defs><g id="SvgjsG1008"><svg xmlns="http://www.w3.org/2000/svg" viewBox="0 0 24 24" width="288" height="288"><path d="M3.5,9a1,1,0,1,0-1-1A1,1,0,0,0,3.5,9Zm4,0h7a3,3,0,0,0,0-6,3.06,3.06,0,0,0-1.5.4,1,1,0,0,0-.37,1.37A1,1,0,0,0,14,5.13,1.09,1.09,0,0,1,14.5,5a1,1,0,0,1,0,2h-7a1,1,0,0,0,0,2Zm-4,4h7a1,1,0,0,0,0-2h-7a1,1,0,0,0,0,2Zm17-4a1,1,0,1,0-1-1A1,1,0,0,0,20.5,9Zm-2,2h-4a1,1,0,0,0,0,2h4a1,1,0,0,1,0,2,1,1,0,0,0,0,2,3,3,0,0,0,0-6Zm-6,4h-4a1,1,0,0,0,0,2h4a1,1,0,0,1,0,2,1.09,1.09,0,0,1-.5-.13,1,1,0,1,0-1,1.73,3.06,3.06,0,0,0,1.5.4,3,3,0,0,0,0-6Zm-8,0h-1a1,1,0,0,0,0,2h1a1,1,0,0,0,0-2Z" fill="#ffffff" class="color000 svgShape"></path></svg></g></svg>